<svg width="60" height="60" viewBox="0 0 60 60" fill="none" xmlns="http://www.w3.org/2000/svg">
<path d="M59.325 43.5586L48.075 34.1836C47.5163 33.7148 46.7363 33.6211 46.08 33.9248C45.42 34.2361 45 34.8961 45 35.6236V41.2486H41.8613C39.2588 41.2486 36.8812 39.9286 35.5013 37.7236L23.3587 18.2986C20.6025 13.8848 15.8475 11.2486 10.6388 11.2486H0V18.7486H10.6388C13.2413 18.7486 15.6187 20.0686 16.9988 22.2736L29.1413 41.6986C31.9012 46.1123 36.6562 48.7486 41.8613 48.7486H45V54.3736C45 55.1011 45.42 55.7611 46.08 56.0723C46.3312 56.1886 46.605 56.2486 46.875 56.2486C47.3063 56.2486 47.7337 56.1023 48.075 55.8136L59.325 46.4386C59.7562 46.0823 60 45.5536 60 44.9986C60 44.4436 59.7562 43.9148 59.325 43.5586Z" fill="#FFA000"/>
<path d="M59.325 13.5586L48.075 4.18362C47.5163 3.71862 46.7363 3.62112 46.08 3.92862C45.42 4.23237 45 4.89612 45 5.62362V11.2486H41.8613C36.6525 11.2486 31.8975 13.8849 29.1413 18.2986L17.0025 37.7236C15.6225 39.9286 13.2413 41.2486 10.6388 41.2486H0V48.7486H10.6388C15.8438 48.7486 20.5988 46.1124 23.3587 41.6986L35.4975 22.2736C36.8812 20.0686 39.2588 18.7486 41.8613 18.7486H45V24.3736C45 25.1011 45.42 25.7649 46.08 26.0724C46.3312 26.1886 46.605 26.2486 46.875 26.2486C47.3063 26.2486 47.7337 26.0986 48.075 25.8136L59.325 16.4386C59.7562 16.0824 60 15.5536 60 14.9986C60 14.4436 59.7562 13.9149 59.325 13.5586Z" fill="#FFC107"/>
</svg>
