<svg width="60" height="60" viewBox="0 0 60 60" fill="none" xmlns="http://www.w3.org/2000/svg">
<path d="M51.3471 32.0112H45.2566C40.4849 32.0112 36.5769 35.9023 36.5769 40.674V50.226C36.5769 53.089 38.932 55.4343 41.7951 55.4343H54.8086C57.6717 55.4343 60 53.089 60 50.226V40.674C60 35.9021 56.1189 32.0112 51.3471 32.0112Z" fill="#FF504A"/>
<path d="M48.3019 32.011H45.2566C40.4849 32.011 36.5769 35.9021 36.5769 40.6739V50.2258C36.5769 53.0889 38.932 55.4341 41.7951 55.4341H48.3019V32.011Z" fill="#FF7959"/>
<path d="M48.3018 14.2661C44.01 14.2661 40.5186 17.7577 40.5186 22.0493C40.5186 26.3411 44.01 29.8327 48.3018 29.8327C52.5936 29.8327 56.085 26.3411 56.085 22.0493C56.085 17.7578 52.5936 14.2661 48.3018 14.2661Z" fill="#FF504A"/>
<path d="M48.3018 14.2661C44.01 14.2661 40.5186 17.7577 40.5186 22.0493C40.5186 26.3411 44.01 29.8327 48.3018 29.8327V14.2661Z" fill="#FF7959"/>
<path d="M14.7701 32.0112H8.67973C3.90797 32.0112 0 35.9021 0 40.6739V50.2259C0 53.0889 2.35512 55.4341 5.21824 55.4341H18.2317C21.0948 55.4341 23.4231 53.0889 23.4231 50.2259V40.6739C23.4231 35.9021 19.542 32.0112 14.7701 32.0112Z" fill="#2FD163"/>
<path d="M11.725 32.011H8.67973C3.90797 32.011 0 35.9021 0 40.6739V50.2258C0 53.0889 2.35512 55.4341 5.21824 55.4341H11.725C11.725 55.4342 11.725 32.011 11.725 32.011Z" fill="#7EFF76"/>
<path d="M35.2995 27.5117H24.7006C19.9288 27.5117 16.0468 31.3937 16.0468 36.1655V53.6875C16.0468 54.6434 16.8217 55.4182 17.7775 55.4182H42.2226C43.1785 55.4182 43.9533 54.6434 43.9533 53.6875V36.1655C43.9533 31.3937 40.0712 27.5117 35.2995 27.5117Z" fill="#3594C7"/>
<path d="M30.0585 27.5117H24.7006C19.9288 27.5117 16.0468 31.3937 16.0468 36.1655V53.6875C16.0468 54.6434 16.8217 55.4182 17.7775 55.4182H30.0585V27.5117Z" fill="#16DCFA"/>
<path d="M30.0001 4.56561C24.2614 4.56561 19.5927 9.23436 19.5927 14.973C19.5927 20.7117 24.2613 25.3805 30.0001 25.3805C35.7389 25.3805 40.4075 20.7117 40.4075 14.973C40.4075 9.23436 35.7387 4.56561 30.0001 4.56561Z" fill="#3594C7"/>
<path d="M30.0001 4.56561C24.2614 4.56561 19.5927 9.23436 19.5927 14.973C19.5927 20.7117 24.2613 25.3805 30.0001 25.3805V4.56561Z" fill="#16DCFA"/>
<path d="M11.725 14.2661C7.43326 14.2661 3.94177 17.7577 3.94177 22.0493C3.94177 26.3411 7.43326 29.8327 11.725 29.8327C16.0168 29.8327 19.5083 26.3411 19.5083 22.0493C19.5083 17.7578 16.0168 14.2661 11.725 14.2661Z" fill="#2FD163"/>
<path d="M11.725 14.2661C7.43326 14.2661 3.94177 17.7577 3.94177 22.0493C3.94177 26.3411 7.43326 29.8327 11.725 29.8327V14.2661Z" fill="#7EFF76"/>
</svg>
