<svg width="60" height="60" viewBox="0 0 60 60" fill="none" xmlns="http://www.w3.org/2000/svg">
<g clip-path="url(#clip0)">
<path d="M35.4375 5.05181L17.0475 0.124315C15.1153 -0.39342 13.1294 0.75326 12.6116 2.68533L7.68401 21.0753C7.16627 23.0075 8.31295 24.9935 10.245 25.5112L28.635 30.4387C30.5672 30.9565 32.5532 29.8098 33.0709 27.8777L37.9985 9.48771C38.5164 7.55564 37.3697 5.56967 35.4375 5.05181Z" fill="#FF5368"/>
<path d="M37.061 5.98969C35.8535 6.31441 34.847 7.25566 34.5002 8.55035L30.5882 23.1504C30.0273 25.2436 27.8757 26.4858 25.7825 25.9249L11.1825 22.0128C9.88734 21.6656 8.56945 22.067 7.68445 22.9502C8.00929 24.1577 8.95031 25.1645 10.2451 25.5112L28.6351 30.4387C30.5673 30.9565 32.5533 29.8098 33.071 27.8777L37.9986 9.48773C38.3456 8.19304 37.9443 6.87469 37.061 5.98969Z" fill="#C5324F"/>
<path d="M52.3161 50.5122L47.3886 32.1222C46.8708 30.19 44.8847 29.0434 42.9527 29.5612L24.5627 34.4887C22.6305 35.0064 21.4839 36.9924 22.0016 38.9245L26.9293 57.3145C27.447 59.2467 29.433 60.3933 31.3652 59.8756L49.7552 54.9479C51.687 54.4304 52.8338 52.4444 52.3161 50.5122Z" fill="#FF5368"/>
<path d="M47.3884 32.1221C47.0414 30.8274 46.0349 29.8864 44.8274 29.5616C43.9441 30.4467 43.5429 31.7649 43.8899 33.0596L47.8019 47.6596C48.3628 49.7528 47.1206 51.9042 45.0274 52.4652L30.4274 56.3774C29.1327 56.7242 28.1917 57.7308 27.8668 58.9383C28.7519 59.8215 30.0702 60.2228 31.3649 59.8759L49.7549 54.9483C51.6871 54.4305 52.8336 52.4445 52.3159 50.5124L47.3884 32.1221Z" fill="#C5324F"/>
<path d="M40.9983 40.7805C42.4985 40.7805 43.7147 39.5644 43.7147 38.0641C43.7147 36.5639 42.4985 35.3477 40.9983 35.3477C39.498 35.3477 38.2819 36.5639 38.2819 38.0641C38.2819 39.5644 39.498 40.7805 40.9983 40.7805Z" fill="#FFF9EB"/>
<path d="M33.3148 54.0877C34.815 54.0877 36.0312 52.8715 36.0312 51.3713C36.0312 49.871 34.815 48.6548 33.3148 48.6548C31.8146 48.6548 30.5984 49.871 30.5984 51.3713C30.5984 52.8715 31.8146 54.0877 33.3148 54.0877Z" fill="#FFF9EB"/>
<path d="M37.1587 47.4352C38.6589 47.4352 39.8751 46.219 39.8751 44.7188C39.8751 43.2186 38.6589 42.0024 37.1587 42.0024C35.6584 42.0024 34.4423 43.2186 34.4423 44.7188C34.4423 46.219 35.6584 47.4352 37.1587 47.4352Z" fill="#FFF9EB"/>
<path d="M18.9988 11.345C20.499 11.345 21.7152 10.1289 21.7152 8.62864C21.7152 7.12841 20.499 5.91223 18.9988 5.91223C17.4985 5.91223 16.2823 7.12841 16.2823 8.62864C16.2823 10.1289 17.4985 11.345 18.9988 11.345Z" fill="#FFF9EB"/>
<path d="M29.4952 14.1563C30.9954 14.1563 32.2116 12.9401 32.2116 11.4399C32.2116 9.93963 30.9954 8.72345 29.4952 8.72345C27.995 8.72345 26.7788 9.93963 26.7788 11.4399C26.7788 12.9401 27.995 14.1563 29.4952 14.1563Z" fill="#FFF9EB"/>
<path d="M16.1871 21.8397C17.6873 21.8397 18.9035 20.6235 18.9035 19.1233C18.9035 17.623 17.6873 16.4069 16.1871 16.4069C14.6869 16.4069 13.4707 17.623 13.4707 19.1233C13.4707 20.6235 14.6869 21.8397 16.1871 21.8397Z" fill="#FFF9EB"/>
<path d="M26.6819 24.653C28.1821 24.653 29.3983 23.4368 29.3983 21.9366C29.3983 20.4363 28.1821 19.2202 26.6819 19.2202C25.1816 19.2202 23.9655 20.4363 23.9655 21.9366C23.9655 23.4368 25.1816 24.653 26.6819 24.653Z" fill="#FFF9EB"/>
</g>
<defs>
<clipPath id="clip0">
<rect width="60" height="60" fill="white"/>
</clipPath>
</defs>
</svg>
